<svg xmlns="http://www.w3.org/2000/svg" viewBox="0 0 16 16" fill="#ffffff" aria-hidden="true" data-slot="icon"><path fill-rule="evenodd" d="M3 3a2 2 0 00-2 2v6a2 2 0 002 2h10a2 2 0 002-2V5a2 2 0 00-2-2H3zm2.5 5a1.5 1.5 0 100-3 1.5 1.5 0 000 3zM10 5.75a.75.75 0 01.75-.75h1.5a.75.75 0 010 1.5h-1.5a.75.75 0 01-.75-.75zm.75 3.75a.75.75 0 000 1.5h1.5a.75.75 0 000-1.5h-1.5zM10 8a.75.75 0 01.75-.75h1.5a.75.75 0 010 1.5h-1.5A.75.75 0 0110 8zm-2.378 3c.346 0 .583-.343.395-.633A2.998 2.998 0 005.5 9a2.998 2.998 0 00-2.517 1.367c-.188.29.05.633.395.633h4.244z" clip-rule="evenodd"/></svg>